<?xml version="1.0" encoding="UTF-8"?>
<svg width="918px" height="176px" viewBox="0 0 918 176" version="1.1" xmlns="http://www.w3.org/2000/svg" xmlns:xlink="http://www.w3.org/1999/xlink">
    <!-- Generator: Sketch 52.2 (67145) - http://www.bohemiancoding.com/sketch -->
    <title>hi</title>
    <desc>Created with Sketch.</desc>
    <defs>
        <linearGradient x1="51.4125702%" y1="133.963368%" x2="50%" y2="-71.491838%" id="linearGradient-1">
            <stop stop-color="#18549E" offset="0%"></stop>
            <stop stop-color="#C751A8" offset="100%"></stop>
        </linearGradient>
    </defs>
    <g id="Page-1" stroke="none" stroke-width="1" fill="none" fill-rule="evenodd">
        <g id="hi">
            <g id="Group" fill="url(#linearGradient-1)">
                <path d="M918,155.222872 C842.575409,125.771789 760.372514,116.106338 671.391312,126.226519 C523.666016,143.027896 411.991071,175.785336 254.660388,175.785336 C168.467895,175.785336 83.5810988,157.516809 -1.12223494e-07,120.979757 L-8.8817842e-15,0 L918,0 L918,155.222872 Z" id="Combined-Shape"></path>
            </g>
            <path d="M371.788574,92 L371.788574,67.1342773 L376.727539,67.1342773 L376.727539,77.9008789 L386.895996,77.9008789 L386.895996,67.1342773 L391.852051,67.1342773 L391.852051,92 L386.895996,92 L386.895996,82.2929687 L376.727539,82.2929687 L376.727539,92 L371.788574,92 Z M399.388672,72.5004883 C398.875977,72.5004883 398.400309,72.3751628 397.96167,72.1245117 C397.523031,71.8738606 397.178386,71.5349121 396.927734,71.107666 C396.677083,70.6804199 396.551758,70.2104492 396.551758,69.6977539 C396.551758,68.9344075 396.828044,68.2792969 397.380615,67.7324219 C397.933187,67.1855469 398.602539,66.9121094 399.388672,66.9121094 C400.163411,66.9121094 400.829915,67.1855469 401.388184,67.7324219 C401.946452,68.2792969 402.225586,68.9344075 402.225586,69.6977539 C402.225586,70.4724934 401.946452,71.1333008 401.388184,71.6801758 C400.829915,72.2270508 400.163411,72.5004883 399.388672,72.5004883 Z M397.098633,92 L397.098633,74.9101562 L401.678711,74.9101562 L401.678711,92 L397.098633,92 Z M415.711996,83.3443822 L418.889069,66.0123093 L423.768056,67.1387121 L419.009058,84.1055691 L415.711996,83.3443822 Z M415.407604,91.9560994 C414.630519,91.7766951 414.033641,91.3611882 413.61697,90.7095786 C413.2003,90.0579689 413.079103,89.3547226 413.253382,88.5998396 C413.42766,87.8449566 413.845514,87.2632365 414.506944,86.8546794 C415.168373,86.4461223 415.88763,86.331546 416.664716,86.5109503 C417.419599,86.6852288 418.004094,87.1037236 418.418202,87.7664343 C418.83231,88.429145 418.953506,89.1323913 418.78179,89.8761732 C418.610075,90.6199551 418.193502,91.1961245 417.532073,91.6046816 C416.870644,92.0132387 416.162487,92.1303779 415.407604,91.9560994 Z M434.372559,92 L434.372559,75.659668 L437.629395,75.659668 L437.629395,92 L434.372559,92 Z M440.279785,81.6567383 L440.987305,75.659668 L444.064453,75.659668 L442.604492,81.6567383 L440.279785,81.6567383 Z M459.944336,80.5786133 C461.202148,80.5786133 462.177327,80.9791667 462.869873,81.7802734 C463.562419,82.5813802 463.908691,83.8129883 463.908691,85.4750977 L463.908691,92.0112305 L460.898926,92.0112305 L460.898926,86.2050781 C460.898926,84.2584636 460.243815,83.2851562 458.933594,83.2851562 C458.506836,83.2851562 458.121257,83.4012044 457.776855,83.6333008 C457.432454,83.8653972 457.157308,84.219157 456.951416,84.6945801 C456.745524,85.1700032 456.642578,85.7333984 456.642578,86.3847656 L456.642578,92.0112305 L453.632812,92.0112305 L453.632812,86.2050781 C453.632812,84.2584636 452.970215,83.2851562 451.64502,83.2851562 C451.188314,83.2851562 450.784017,83.4012044 450.432129,83.6333008 C450.080241,83.8653972 449.799479,84.219157 449.589844,84.6945801 C449.380208,85.1700032 449.275391,85.7333984 449.275391,86.3847656 L449.275391,92 L446.265625,92 L446.265625,80.7695312 L449.275391,80.7695312 L449.275391,82.2519531 L449.309082,82.2519531 C449.750814,81.7128906 450.263672,81.2992351 450.847656,81.0109863 C451.431641,80.7227376 452.038086,80.5786133 452.666992,80.5786133 C454.231771,80.5786133 455.343587,81.1813152 456.002441,82.3867187 L456.036133,82.3867187 C456.492839,81.8027344 457.056234,81.3553874 457.726318,81.0446777 C458.396403,80.733968 459.135742,80.5786133 459.944336,80.5786133 Z M476.352051,92.1572266 C475.506022,92.1572266 474.682454,91.9756673 473.881348,91.6125488 C473.080241,91.2494304 472.410156,90.7197266 471.871094,90.0234375 L473.712891,87.7436523 C474.019857,88.1479492 474.392334,88.4829915 474.830322,88.7487793 C475.268311,89.0145671 475.704427,89.1474609 476.138672,89.1474609 C477.463867,89.1474609 478.126465,88.2003581 478.126465,86.3061523 L478.126465,75.659668 L481.37207,75.659668 L481.37207,86.25 C481.37207,86.8639323 481.332764,87.4291992 481.25415,87.9458008 C481.175537,88.4624023 481.052002,88.9434407 480.883545,89.388916 C480.715088,89.8343913 480.497966,90.2255859 480.232178,90.5625 C479.96639,90.8994141 479.650065,91.1876628 479.283203,91.4272461 C478.916341,91.6668294 478.487712,91.8483887 477.997314,91.9719238 C477.506917,92.095459 476.958496,92.1572266 476.352051,92.1572266 Z M494.949707,86.2836914 C494.949707,86.8152669 494.923503,87.1746419 494.871094,87.3618164 L486.998535,87.3618164 C487.178223,88.0281575 487.520752,88.5522461 488.026123,88.934082 C488.531494,89.315918 489.143555,89.5105794 489.862305,89.5180664 C490.947917,89.5255534 491.842611,89.1025391 492.546387,88.2490234 L494.500488,90.0683594 C493.991374,90.7122395 493.325032,91.2269695 492.501465,91.6125488 C491.677897,91.9981282 490.727051,92.190918 489.648926,92.190918 C488.555827,92.190918 487.571289,91.9532063 486.695312,91.4777832 C485.819336,91.0023601 485.128662,90.3191731 484.623291,89.4282227 C484.11792,88.5372722 483.865234,87.519043 483.865234,86.3735352 C483.865234,85.5349934 484.007487,84.7544759 484.291992,84.0319824 C484.576497,83.309489 484.963949,82.6955566 485.454346,82.1901855 C485.944743,81.6848145 486.534343,81.2898762 487.223145,81.0053711 C487.911947,80.7208659 488.649414,80.5786133 489.435547,80.5786133 C490.521159,80.5786133 491.483236,80.8238118 492.321777,81.314209 C493.160319,81.8046062 493.807943,82.4821777 494.264648,83.3469238 C494.721354,84.2116699 494.949707,85.1905925 494.949707,86.2836914 Z M489.536621,83.2290039 C488.915202,83.2290039 488.381755,83.3974609 487.936279,83.734375 C487.490804,84.0712891 487.181966,84.5579427 487.009766,85.1943359 L491.962402,85.1943359 C491.805176,84.5804036 491.520671,84.0993652 491.108887,83.7512207 C490.697103,83.4030762 490.173014,83.2290039 489.536621,83.2290039 Z M500.980469,92.190918 C499.198568,92.190918 497.682454,91.640625 496.432129,90.5400391 L497.89209,88.4624023 C498.827962,89.3383789 499.864909,89.7763672 501.00293,89.7763672 C501.429688,89.7763672 501.766602,89.6902669 502.013672,89.5180664 C502.260742,89.3458659 502.384277,89.1212566 502.384277,88.8442383 C502.384277,88.6720378 502.309407,88.5204265 502.159668,88.3894043 C502.009928,88.2583821 501.802165,88.1367187 501.536377,88.0244141 C501.270589,87.9121094 500.871907,87.7698567 500.340332,87.5976562 C500.003418,87.4853516 499.702067,87.3730469 499.436279,87.2607422 C499.170491,87.1484375 498.899089,87.0155437 498.62207,86.8620605 C498.345052,86.7085774 498.107341,86.5382488 497.908936,86.3510742 C497.710531,86.1638997 497.530843,85.9542644 497.369873,85.722168 C497.208903,85.4900716 497.08724,85.2242839 497.004883,84.9248047 C496.922526,84.6253255 496.881348,84.2996419 496.881348,83.9477539 C496.881348,83.2814128 497.059163,82.6918132 497.414795,82.1789551 C497.770426,81.6660969 498.253337,81.2711589 498.863525,80.9941406 C499.473714,80.7171223 500.160645,80.5786133 500.924316,80.5786133 C501.710449,80.5786133 502.432943,80.690918 503.091797,80.9155273 C503.750651,81.1401367 504.398275,81.4995117 505.034668,81.9936523 L503.574707,84.1948242 C503.155436,83.7980144 502.711833,83.500407 502.243896,83.302002 C501.77596,83.1035969 501.32487,83.0043945 500.890625,83.0043945 C500.60612,83.0043945 500.351562,83.0773926 500.126953,83.2233887 C499.902344,83.3693848 499.790039,83.5771484 499.790039,83.8466797 C499.790039,84.0712891 499.922933,84.2734375 500.188721,84.453125 C500.454509,84.6328125 500.883138,84.8349609 501.474609,85.0595703 C502.717448,85.5162761 503.548503,85.8793945 503.967773,86.1489258 C504.69401,86.5981445 505.128255,87.1971028 505.270508,87.9458008 C505.31543,88.1704102 505.337891,88.4212239 505.337891,88.6982422 C505.337891,89.7389323 504.965413,90.5812175 504.220459,91.2250977 C503.475505,91.8689778 502.395508,92.190918 500.980469,92.190918 Z M511.278809,92.190918 C509.496907,92.190918 507.980794,91.640625 506.730469,90.5400391 L508.19043,88.4624023 C509.126302,89.3383789 510.163249,89.7763672 511.30127,89.7763672 C511.728027,89.7763672 512.064941,89.6902669 512.312012,89.5180664 C512.559082,89.3458659 512.682617,89.1212566 512.682617,88.8442383 C512.682617,88.6720378 512.607747,88.5204265 512.458008,88.3894043 C512.308268,88.2583821 512.100505,88.1367187 511.834717,88.0244141 C511.568929,87.9121094 511.170247,87.7698567 510.638672,87.5976562 C510.301758,87.4853516 510.000407,87.3730469 509.734619,87.2607422 C509.468831,87.1484375 509.197428,87.0155437 508.92041,86.8620605 C508.643392,86.7085774 508.40568,86.5382488 508.207275,86.3510742 C508.00887,86.1638997 507.829183,85.9542644 507.668213,85.722168 C507.507243,85.4900716 507.385579,85.2242839 507.303223,84.9248047 C507.220866,84.6253255 507.179688,84.2996419 507.179688,83.9477539 C507.179688,83.2814128 507.357503,82.6918132 507.713135,82.1789551 C508.068766,81.6660969 508.551676,81.2711589 509.161865,80.9941406 C509.772054,80.7171223 510.458984,80.5786133 511.222656,80.5786133 C512.008789,80.5786133 512.731282,80.690918 513.390137,80.9155273 C514.048991,81.1401367 514.696615,81.4995117 515.333008,81.9936523 L513.873047,84.1948242 C513.453776,83.7980144 513.010173,83.500407 512.542236,83.302002 C512.0743,83.1035969 511.62321,83.0043945 511.188965,83.0043945 C510.90446,83.0043945 510.649902,83.0773926 510.425293,83.2233887 C510.200684,83.3693848 510.088379,83.5771484 510.088379,83.8466797 C510.088379,84.0712891 510.221273,84.2734375 510.487061,84.453125 C510.752848,84.6328125 511.181478,84.8349609 511.772949,85.0595703 C513.015788,85.5162761 513.846843,85.8793945 514.266113,86.1489258 C514.99235,86.5981445 515.426595,87.1971028 515.568848,87.9458008 C515.61377,88.1704102 515.63623,88.4212239 515.63623,88.6982422 C515.63623,89.7389323 515.263753,90.5812175 514.518799,91.2250977 C513.773844,91.8689778 512.693848,92.190918 511.278809,92.190918 Z M519.589355,79.1860352 C519.252441,79.1860352 518.93986,79.1036784 518.651611,78.9389648 C518.363363,78.7742512 518.136882,78.5515137 517.972168,78.270752 C517.807454,77.9899902 517.725098,77.6811523 517.725098,77.3442383 C517.725098,76.8426106 517.906657,76.4121094 518.269775,76.0527344 C518.632894,75.6933594 519.072754,75.5136719 519.589355,75.5136719 C520.09847,75.5136719 520.536458,75.6933594 520.90332,76.0527344 C521.270182,76.4121094 521.453613,76.8426106 521.453613,77.3442383 C521.453613,77.8533528 521.270182,78.2875977 520.90332,78.6469727 C520.536458,79.0063477 520.09847,79.1860352 519.589355,79.1860352 Z M518.084473,92 L518.084473,80.7695312 L521.094238,80.7695312 L521.094238,92 L518.084473,92 Z M529.438477,92.190918 C528.337891,92.190918 527.349609,91.9494629 526.473633,91.4665527 C525.597656,90.9836426 524.910726,90.3004558 524.412842,89.4169922 C523.914958,88.5335286 523.666016,87.52653 523.666016,86.3959961 C523.666016,85.2579753 523.916829,84.2472331 524.418457,83.3637695 C524.920085,82.4803059 525.620117,81.7952473 526.518555,81.3085937 C527.416992,80.8219402 528.438965,80.5786133 529.584473,80.5786133 C530.505371,80.5786133 531.392578,80.763916 532.246094,81.1345215 C533.099609,81.505127 533.803385,82.0385742 534.357422,82.7348633 L532.324707,84.4868164 C531.635905,83.6857097 530.763672,83.2851562 529.708008,83.2851562 C529.266276,83.2851562 528.858236,83.3618977 528.483887,83.5153809 C528.109538,83.668864 527.793213,83.8803711 527.534912,84.1499023 C527.276611,84.4194336 527.076335,84.7451172 526.934082,85.1269531 C526.791829,85.5087891 526.720703,85.9243164 526.720703,86.3735352 C526.720703,87.2944336 526.999593,88.0431316 527.557373,88.6196289 C528.115153,89.1961262 528.839518,89.484375 529.730469,89.484375 C530.284505,89.484375 530.784261,89.3776855 531.229736,89.1643066 C531.675212,88.9509277 532.043945,88.6795247 532.335938,88.3500977 L534.402344,90.1694336 C533.885742,90.7683919 533.198812,91.2550456 532.341553,91.6293945 C531.484294,92.0037434 530.516602,92.190918 529.438477,92.190918 Z M544.509766,80.7695312 L547.519531,80.7695312 L547.519531,92 L544.655762,92 L544.655762,90.6411133 L544.599609,90.6411133 C543.798503,91.6743164 542.679199,92.190918 541.241699,92.190918 C540.47054,92.190918 539.753662,92.0524089 539.091064,91.7753906 C538.428467,91.4983723 537.859456,91.1109212 537.384033,90.6130371 C536.90861,90.1151531 536.536133,89.5049641 536.266602,88.7824707 C535.99707,88.0599773 535.862305,87.2719727 535.862305,86.418457 C535.862305,85.5799153 535.99707,84.7975261 536.266602,84.0712891 C536.536133,83.345052 536.904866,82.7273762 537.372803,82.2182617 C537.840739,81.7091472 538.402262,81.3085937 539.057373,81.0166016 C539.712484,80.7246094 540.410645,80.5786133 541.151855,80.5786133 C542.521973,80.5786133 543.626302,81.0652669 544.464844,82.0385742 L544.509766,82.0385742 L544.509766,80.7695312 Z M541.791992,89.4956055 C542.593099,89.4956055 543.266927,89.2111003 543.813477,88.6420898 C544.360026,88.0730794 544.633301,87.335612 544.633301,86.4296875 C544.633301,85.53125 544.365641,84.782552 543.830322,84.1835937 C543.295003,83.5846355 542.619303,83.2851562 541.803223,83.2851562 C540.979655,83.2851562 540.292725,83.573405 539.742432,84.1499023 C539.192139,84.7263997 538.916992,85.4863281 538.916992,86.4296875 C538.916992,87.335612 539.184652,88.0730794 539.719971,88.6420898 C540.25529,89.2111003 540.945964,89.4956055 541.791992,89.4956055 Z" id="Hi-!-I’m-Jessica" fill="#FFFFFF"></path>
        </g>
    </g>
</svg>