<?xml version="1.0" encoding="UTF-8"?>
<svg width="24px" height="16px" viewBox="0 0 24 16" version="1.1" xmlns="http://www.w3.org/2000/svg" xmlns:xlink="http://www.w3.org/1999/xlink">
    <!-- Generator: Sketch 52.2 (67145) - http://www.bohemiancoding.com/sketch -->
    <title>be</title>
    <desc>Created with Sketch.</desc>
    <defs>
        <linearGradient x1="41.9996396%" y1="-27.3812966%" x2="55.6462516%" y2="128.172278%" id="linearGradient-1">
            <stop stop-color="#C751A8" offset="0%"></stop>
            <stop stop-color="#18549E" offset="100%"></stop>
        </linearGradient>
    </defs>
    <g id="Page-1" stroke="none" stroke-width="1" fill="none" fill-rule="evenodd">
        <g id="be" fill="url(#linearGradient-1)" fill-rule="nonzero">
            <path d="M6.938,0.503 C7.64,0.503 8.278,0.563 8.858,0.691 C9.435,0.821 9.928,1.021 10.343,1.301 C10.753,1.581 11.076,1.951 11.303,2.421 C11.528,2.891 11.643,3.471 11.643,4.151 C11.643,4.891 11.473,5.511 11.136,6.011 C10.798,6.511 10.299,6.911 9.634,7.231 C10.54,7.491 11.21,7.951 11.656,8.601 C12.104,9.261 12.321,10.051 12.321,10.961 C12.321,11.711 12.191,12.351 11.911,12.891 C11.631,13.441 11.241,13.891 10.751,14.241 C10.271,14.589 9.701,14.841 9.081,15.008 C8.471,15.173 7.829,15.262 7.171,15.262 L0,15.262 L0,0.51 L6.938,0.51 L6.938,0.503 Z M16.94,12.665 C17.38,13.093 18.013,13.308 18.834,13.308 C19.424,13.308 19.934,13.16 20.364,12.861 C20.788,12.571 21.044,12.251 21.144,11.921 L23.732,11.921 C23.329,13.201 22.684,14.121 21.832,14.671 C20.982,15.231 19.948,15.501 18.752,15.501 C17.915,15.501 17.168,15.371 16.48,15.101 C15.807,14.831 15.24,14.451 14.76,13.961 C14.296,13.471 13.937,12.881 13.683,12.191 C13.43,11.501 13.31,10.741 13.31,9.921 C13.31,9.118 13.445,8.381 13.713,7.691 C13.983,6.991 14.357,6.411 14.833,5.901 C15.328,5.391 15.896,5.006 16.569,4.707 C17.242,4.408 17.969,4.274 18.789,4.274 C19.699,4.274 20.479,4.438 21.169,4.797 C21.839,5.137 22.389,5.617 22.829,6.197 C23.269,6.783 23.579,7.457 23.769,8.217 C23.959,8.967 24.019,9.757 23.979,10.597 L16.289,10.597 C16.289,11.437 16.569,12.229 16.999,12.662 L16.919,12.692 L16.94,12.665 Z M6.7,12.715 C7.017,12.715 7.32,12.685 7.606,12.622 C7.896,12.562 8.154,12.457 8.369,12.322 C8.579,12.187 8.759,11.994 8.889,11.739 C9.019,11.499 9.079,11.169 9.079,10.779 C9.079,10.029 8.859,9.489 8.439,9.159 C8.009,8.839 7.449,8.679 6.749,8.679 L3.24,8.679 L3.24,12.729 L6.7,12.729 L6.7,12.699 L6.7,12.715 Z M20.307,7.065 C19.955,6.68 19.367,6.473 18.65,6.473 C18.182,6.473 17.795,6.547 17.484,6.711 C17.182,6.861 16.934,7.061 16.744,7.301 C16.554,7.541 16.427,7.781 16.352,8.051 C16.277,8.311 16.232,8.551 16.217,8.761 L20.979,8.761 C20.909,8.011 20.649,7.461 20.299,7.071 L20.299,7.081 L20.307,7.065 Z M6.52,6.45 C7.094,6.45 7.57,6.316 7.945,6.038 C8.319,5.768 8.499,5.318 8.499,4.7 C8.499,4.356 8.429,4.075 8.319,3.854 C8.189,3.634 8.019,3.464 7.819,3.342 C7.609,3.218 7.369,3.132 7.099,3.085 C6.829,3.032 6.539,3.011 6.259,3.011 L3.23,3.011 L3.23,6.451 L6.52,6.451 L6.52,6.45 Z M15.618,1.492 L21.586,1.492 L21.586,2.946 L15.618,2.946 L15.618,1.48 L15.618,1.49 L15.618,1.492 Z" id="Shape"></path>
        </g>
    </g>
</svg>