<?xml version="1.0" encoding="UTF-8"?>
<svg width="24px" height="24px" viewBox="0 0 24 24" version="1.1" xmlns="http://www.w3.org/2000/svg" xmlns:xlink="http://www.w3.org/1999/xlink">
    <!-- Generator: Sketch 52.2 (67145) - http://www.bohemiancoding.com/sketch -->
    <title>codepen</title>
    <desc>Created with Sketch.</desc>
    <defs>
        <linearGradient x1="24.6573519%" y1="-16.8813346%" x2="69.5162824%" y2="132.541614%" id="linearGradient-1">
            <stop stop-color="#C751A8" offset="0%"></stop>
            <stop stop-color="#18549E" offset="100%"></stop>
        </linearGradient>
    </defs>
    <g id="Page-1" stroke="none" stroke-width="1" fill="none" fill-rule="evenodd">
        <g id="codepen" fill="url(#linearGradient-1)" fill-rule="nonzero">
            <path d="M18.144,13.067 L18.144,10.933 L16.55,12 L18.144,13.067 Z M19.42,14.261 C19.0819874,14.2386143 18.8226443,13.9521792 18.8338433,13.6136114 C18.8450423,13.2750435 19.122747,13.0063727 19.4615,13.0063727 C19.800253,13.0063727 20.0779577,13.2750435 20.0891567,13.6136114 C20.1003557,13.9521792 19.8410126,14.2386143 19.503,14.261 L19.498,14.289 L19.487,14.342 L19.477,14.373 C19.472,14.389 19.467,14.404 19.46,14.42 L19.446,14.45 C19.0195727,14.4382414 18.6816943,14.0860942 18.6875741,13.6595453 C18.6934539,13.2329965 19.0409106,12.8902964 19.4675,12.8902964 C19.8940894,12.8902964 20.2415461,13.2329965 20.2474259,13.6595453 C20.2533057,14.0860942 19.9154273,14.4382414 19.489,14.45 L19.47,14.48 C19.1661055,14.4532394 18.9371564,14.1919495 18.9505496,13.8871731 C18.9639428,13.5823967 19.2149295,13.3421972 19.52,13.3421972 C19.8250705,13.3421972 20.0760572,13.5823967 20.0894504,13.8871731 C20.1028436,14.1919495 19.8738945,14.4532394 19.57,14.48 L19.544,14.505 C19.2145524,14.4967886 18.9529407,14.2252107 18.9570467,13.8956863 C18.9611527,13.566162 19.2294501,13.3011869 19.559,13.3011869 C19.8885499,13.3011869 20.1568473,13.566162 20.1609533,13.8956863 C20.1650593,14.2252107 19.9034476,14.4967886 19.574,14.505 L19.545,14.527 L19.535,14.535 L12.753,19.057 L4.864,14.79 L4.854,14.782 C5.17944448,14.7961395 5.43393025,15.0677638 5.42685885,15.3934385 C5.41978745,15.7191133 5.1537515,15.9794355 4.828,15.9794355 C4.5022485,15.9794355 4.23621255,15.7191133 4.22914115,15.3934385 C4.22206975,15.0677638 4.47655552,14.7961395 4.802,14.782 L4.776,14.757 L4.744,14.723 L4.723,14.695 C5.03566289,14.7243745 5.27005852,14.9942569 5.25535516,15.3079523 C5.24065181,15.6216476 4.98203972,15.8684221 4.668,15.8684221 C4.35396028,15.8684221 4.09534819,15.6216476 4.08064484,15.3079523 C4.06594148,14.9942569 4.30033711,14.7243745 4.613,14.695 L4.599,14.664 C4.9498565,14.6768115 5.22579959,14.9682912 5.21939276,15.319323 C5.21298593,15.6703549 4.92659032,15.9515711 4.5755,15.9515711 C4.22440968,15.9515711 3.93801407,15.6703549 3.93160724,15.319323 C3.92520041,14.9682912 4.2011435,14.6768115 4.552,14.664 L4.542,14.634 C4.538,14.616 4.534,14.598 4.532,14.58 L4.526,14.552 C4.86401256,14.5743857 5.12335572,14.8608208 5.11215673,15.1993886 C5.10095773,15.5379565 4.82325302,15.8066273 4.4845,15.8066273 C4.14574698,15.8066273 3.86804227,15.5379565 3.85684327,15.1993886 C3.84564428,14.8608208 4.10498744,14.5743857 4.443,14.552 L4.443,9.739 C4.443,9.711 4.445,9.684 4.449,9.656 L4.454,9.629 L4.465,9.575 L4.475,9.545 L4.506,9.511 L4.532,9.486 L4.542,9.478 L11.324,4.957 L18.106,9.478 L18.116,9.486 L18.146,9.508 L18.181,9.538 C18.191,9.546 18.198,9.554 18.207,9.563 L18.226,9.593 L18.24,9.623 C18.247,9.639 18.252,9.655 18.257,9.67 L18.267,9.701 C18.271,9.719 18.275,9.737 18.277,9.755 L18.283,9.782 L19.42,14.261 Z M12,0 C5.373,0 0,5.372 0,12 C0,18.627 5.373,24 12,24 C18.628,24 24,18.628 24,12 C24,5.373 18.628,0 12,0 Z M12,10.492 L9.745,12 L12,13.51 L14.255,12 L12,10.492 Z M12.638,14.616 L12.638,17.591 L17.634,14.261 L15.402,12.768 L12.638,14.616 Z M6.366,14.26 L11.362,17.59 L11.362,14.616 L8.598,12.767 L6.366,14.26 Z M17.634,9.74 L12.638,6.41 L12.638,9.384 L15.402,11.234 L17.634,9.74 Z M11.362,9.384 L11.362,6.41 L6.366,9.74 L8.598,11.233 L11.362,9.384 Z M5.856,10.933 L5.856,13.067 L7.45,12 L5.856,10.933 Z" id="Shape"></path>
        </g>
    </g>
</svg>